# xmcd
#
# Track frame offsets:
#	150
#	14892
#	29843
#	40178
#	61565
#	76731
#	91768
#	108877
#	124359
#	137917
#
# Disc length: 2066 seconds
#
# Revision: 0
# Processed by: cddbd v1.5.1PL2 Copyright (c) Steve Scherf et al.
# Submitted via: dBpowerAMP V4.0
#
DISCID=7f08100a
DTITLE=Beverly "Guitar" Watkins - the feelings of Beverly "Guitar" Watkins
DYEAR=1900
DGENRE=Blues
TTITLE0=As I was Walking
TTITLE1=Baghdad Blues
TTITLE2=Right Don't Wrong Nobody
TTITLE3=Just Make Believe
TTITLE4=Get Out on the Floor
TTITLE5=Sugar Baby Swing
TTITLE6=Late Bus Blues
TTITLE7=Harp Blues
TTITLE8=Melody Midnight Cruise
TTITLE9=Jesus Walked the Water
EXTD="the feelings of Beverly "Guitar" Watkins"
EXTT0=
EXTT1=
EXTT2=
EXTT3=
EXTT4=
EXTT5=
EXTT6=
EXTT7=
EXTT8=
EXTT9=
PLAYORDER=
